<svg xmlns="http://www.w3.org/2000/svg" viewBox="0 0 1024 1024">
  <rect width="1024" height="1024" fill="#efeb56" rx="0" ry="0"/>
  <path fill="#0b0a07" d="M453.57 132.03c-21.46-1.62-40.89-.6-70.18 7.25L178.8 194.1c-21.48 5.75-29.1 11.07-42.98 23.16-13.88 12.1-20.59 27.05-21.51 57.15-1.08 35.26 25.54 90.3 25.54 90.3s-31.66-28.78-41.37-60.44c-5.96-19.41-6.76-38.35-6.5-50.15-21.42 30.57-31.04 68.74-25.85 107.81 8 26 21.3 50.52 37.81 74.33 29.7 42.82 77.09 78.8 77.09 78.8s-16-6.29-42.26-23.99c-16.67-11.23-41.08-42.62-56.75-64.12l19.16 71.51c3.5 13.05 11.12 26.06 20.95 39.29 25.64 34.49 53.19 51.53 93.15 68.09 39.97 16.55 84.5 19.98 84.5 19.98l-7.99 9.14s-47.84 14.22-79.36 35.4c-34.08 22.9-52.2 48.45-46.15 71.06l12.57 46.93c3.96 14.75 14.14-.91 14.14-.91s1.17.54 27.43-40c26.27-40.54 41.11-46.82 41.11-46.82s-47.39 64.52-58.8 99.35c-5.89 17.93-7.19 36.24-7.1 50a153.05 153.05 0 0 0 90.34 98.33c15.17 4.07 15.33-11.57 17.81-44.42 4.04-53.37 9.71-74.8 9.71-74.8s6.22 81.05 13.85 100.35c7.07 17.9 10.1 29 28.9 29 8.7-.8 17.42-2.18 26.15-4.52l72.31-19.38c14.29-3.82 23.69-21 22.66-32.36-1.21-13.31-18.7-29.8-29.12-50.25-14.85-29.11-22.27-47.96-22.27-47.96s11.83 21.44 19.9 26.48c8.08 5.05 19.18 3.44 19.18 3.44s-15.95-7.65-37.37-55.32c-21.4-47.68-20.55-74.23-20.55-74.23s98.78 117.9 214.68 138.46c115.91 20.56 200.35-35.16 200.35-35.16s-32.3 3.64-62.99-.4c-30.68-4.04-41.98-9.69-41.98-9.69s188.4 21.27 212.95-68.37c24.55-89.65-3.43-169.58-3.43-169.58s-14.52 28.61-29.86 41.93c-15.34 13.33-35.93 24.23-35.93 24.23s51.55-38.08 64.1-91.95c12.54-53.86-6.8-114.66-23.85-157.4-17.05-42.76-38.58-61.72-54.93-79.98-24.63-27.5-48.76-41.44-55.24-37.12-6.47 4.32 16.2 25.18 25.55 42.45 9.35 17.27 15.1 42.45 15.1 42.45s-21.94-43.89-62.6-68c-40.64-24.1-80.22-27.33-89.93-7.9-9.71 19.42 41.73 5.75 80.59 57.2 38.85 51.44 31.65 109 31.65 109s-9-20.5-18.7-26.62a43.35 43.35 0 0 0-19.43-6.48s15.47 57.56-19.79 85.26c-25.5 24.27-52.48 26.54-81.97 28.47 0 0 0-20.86-43.76-28.5-43.75-7.62-111.92 43.76-111.92 43.76s-6.11-4.07-7.13-29.5c-1.01-25.45-26.96-25.95-41.2-59.53-14.25-33.58-8.15-69.7-2.04-85.47 6.1-15.78 17.3-31.04-.51-25.95-17.8 5.09-29 32.05-29 32.05s0-43.75 49.35-60.54c49.35-16.8 71.23 16.79 77.33 12.2 6.1-4.57 2.04-26.96-12.2-50.36-14.25-23.4-49.87-37.65-49.87-37.65s-11.19-2.04 58.51-17.3c69.7-15.26 4.58-41.2-38.16-43.75-42.73-2.55-77.33 16.28-77.33 16.28s9.79-12.16 30.02-23.4c18.52-10.3 49.72-21.7 0-25.44z"/>
</svg>
