<svg xmlns="http://www.w3.org/2000/svg" viewBox="0 0 1024 1024">
  <g stroke-width=".98" transform="rotate(-15 -51.37 39.42) scale(1.02335)">
    <rect width="880" height="880" x="-77.96" y="187.07" fill="#efeb56" rx="172" ry="172"/>
    <path fill="#0b0a07" d="M402.99 253.64c-19.85-6.95-38.44-10.9-68.08-10.9H127.94c-21.72 0-30.27 3.08-46.42 11-16.16 7.9-26.28 20.32-34.76 48.5-9.93 33 1.27 91.68 1.27 91.68s-22.6-35.17-23.76-67.5c-.71-19.84 3.32-37.91 6.55-48.98-27.95 23.43-46.68 57.02-51.67 95.22.97 26.56 7.34 53.07 16.9 79.72 17.19 47.93 52.82 93.86 52.82 93.86s-13.5-9.97-33.81-33.32c-12.9-14.82-28-50.62-37.36-74.87v72.34c0 13.2 3.9 27.4 9.84 42.38 15.48 39.04 37.17 62.1 70.7 87.83 33.55 25.74 74.72 40.23 74.72 40.23l-9.86 6.6s-48.76 1.33-83.87 13.35C1.28 713.77-22.3 733.3-22.3 756.18v47.48c0 14.92 13.58 2.71 13.58 2.71s.96.8 36-30.82c35.05-31.62 50.65-33.8 50.65-33.8s-61.05 48.92-80.64 78.91c-10.08 15.44-15.94 32.4-19.34 45.4a149.56 149.56 0 0 0 60.4 115.67c13.3 7.67 17.4-7.05 28.05-37.42 17.3-49.36 28.08-68.15 28.08-68.15s-14.63 78.07-12.3 98.22c2.14 18.68 2.2 29.92 19.94 34.67 8.4 1.45 17 2.36 25.82 2.36h73.16c14.45 0 27.67-13.84 29.57-24.82 2.22-12.87-10.11-32.87-14.78-54.8-6.64-31.23-8.89-50.9-8.89-50.9s5.75 23.23 12.1 30.03c6.34 6.81 17.23 8.1 17.23 8.1s-13.13-11.26-21.28-61.67c-8.15-50.42-.63-75.26-.63-75.26s63.41 136.27 167.62 184.99c104.2 48.71 198 17.48 198 17.48s-31.41-4.74-59.35-16.31c-27.95-11.57-37.19-19.77-37.19-19.77s172.45 67.73 218.3-10.67c45.85-78.4 39.66-160.93 39.66-160.93s-20.95 23.33-38.8 32.03c-17.85 8.7-40.04 13.77-40.04 13.77s58.29-22.9 83.76-70.57c25.46-47.67 22.58-109.95 17.3-154.61-5.29-44.67-20.8-68-31.62-89.37-16.3-32.19-35.55-51.45-42.75-49.02-7.2 2.44 8.9 27.87 13.37 46.53 4.46 18.67 3.53 43.9 3.53 43.9s-9.62-46.98-41.9-80.02c-32.27-33.03-68.8-46.1-82.88-30.21-14.08 15.88 37.93 15.99 61.6 74.37 23.66 58.38 2.3 110.9 2.3 110.9s-3.3-21.64-10.92-29.87c-7.62-8.22-16.7-11.02-16.7-11.02s.05 58.24-40.24 75.47c-30.2 16.46-56.25 11.78-84.57 6.14 0 0 5.28-19.69-34.1-37.96-39.36-18.27-116.7 13-116.7 13s-4.74-5.4.73-29.66c5.48-24.27-18.89-31.31-23.84-66.61-4.95-35.3 9.94-67.85 19.7-81.2 9.75-13.33 24.17-24.91 6.08-24.61-18.1.3-35.48 22.92-35.48 22.92s11.07-41.3 61.9-44.67c50.82-3.36 62.98 33.86 69.9 31.09 6.92-2.78 8.74-24.94 1.21-50.63-7.53-25.7-37.54-48.15-37.54-48.15s-10.05-4.75 59.6-1.53c69.65 3.22 14.75-37.74-24.95-50.95s-77.11-4.2-77.11-4.2 12.32-9 34.25-14.49c20.1-5.03 52.42-7.9 6.44-24.01z"/>
  </g>
</svg>
